<?xml version="1.0" encoding="UTF-8"?>
<svg width="37px" height="24px" viewBox="0 0 37 24" version="1.1" xmlns="http://www.w3.org/2000/svg" xmlns:xlink="http://www.w3.org/1999/xlink">
    <!-- Generator: sketchtool 53 (72520) - https://sketchapp.com -->
    <title>E0D688F8-E40B-42F6-A53D-8F1FEC35CDA9</title>
    <desc>Created with sketchtool.</desc>
    <g id="Page-1" stroke="none" stroke-width="1" fill="none" fill-rule="evenodd" stroke-linecap="round" stroke-linejoin="round">
        <g id="Desktop---mobile-app---1920-Copy" transform="translate(-973.000000, -135.000000)" stroke="#73C41D" stroke-width="2">
            <g id="Group-18" transform="translate(230.000000, 122.000000)">
                <g id="icon-compensation" transform="translate(744.000000, 14.000000)">
                    <polyline id="Rectangle-8-Copy" points="32 3 35 3 35 22 3 22 3 19"></polyline>
                    <polygon id="Rectangle-8" points="0 0 32 0 32 19 0 19"></polygon>
                    <circle id="Oval-6" cx="16" cy="9.5" r="7.5"></circle>
                    <g id="Group-2" transform="translate(13.500000, 4.000000)">
                        <path d="M5,3.66666667 C5,2.65414463 3.88071187,1.83333333 2.5,1.83333333 C1.11928813,1.83333333 0,2.65414463 0,3.66666667 C0,4.67918871 1.11928813,5.5 2.5,5.5 L2.5,5.5" id="Oval-2"></path>
                        <path d="M2.5,0.458333333 L2.5,10.5416667" id="Line"></path>
                        <path d="M0,7.33333333 C0,8.34585537 1.11928813,9.16666667 2.5,9.16666667 L2.5,9.16666667 C3.88071187,9.16666667 5,8.34585537 5,7.33333333 C5,6.32081129 3.88071187,5.5 2.5,5.5" id="Oval-2-Copy"></path>
                    </g>
                </g>
            </g>
        </g>
    </g>
</svg>