<?xml version="1.0" encoding="UTF-8"?>
<svg width="36px" height="37px" viewBox="0 0 36 37" version="1.1" xmlns="http://www.w3.org/2000/svg" xmlns:xlink="http://www.w3.org/1999/xlink">
    <!-- Generator: sketchtool 53 (72520) - https://sketchapp.com -->
    <title>3D743B0E-3A72-4570-877B-7FCE9C1B9446</title>
    <desc>Created with sketchtool.</desc>
    <g id="Page-1" stroke="none" stroke-width="1" fill="none" fill-rule="evenodd" stroke-linecap="round" stroke-linejoin="round">
        <g id="Desktop---mobile-app---1920-Copy" transform="translate(-1202.000000, -122.000000)" stroke="#73C41D" stroke-width="2">
            <g id="Group-18" transform="translate(230.000000, 122.000000)">
                <g id="icon-culture" transform="translate(973.000000, 1.000000)">
                    <path d="M13.9794816,35 C13.987041,34.8705403 14,34.7420999 14,34.6106014 C14,30.9592253 10.8650108,28 6.99676026,28 L7.00323974,28 C3.1349892,28 0,30.9592253 0,34.6106014 C0,34.7420999 0.0118790497,34.8705403 0.0205183585,35" id="Stroke-1"></path>
                    <path d="M11,23.0004766 C11,20.7919695 9.20898368,19 7.00047659,19 C4.79101632,19 3,20.7919695 3,23.0004766 C3,25.2089837 4.79101632,27 7.00047659,27 C9.20898368,27 11,25.2089837 11,23.0004766 L11,23.0004766 Z" id="Stroke-3"></path>
                    <path d="M33.9794816,35 C33.987041,34.8705403 34,34.7420999 34,34.6106014 C34,30.9592253 30.8650108,28 26.9967603,28 L27.0032397,28 C23.1349892,28 20,30.9592253 20,34.6106014 C20,34.7420999 20.011879,34.8705403 20.0205184,35" id="Stroke-5"></path>
                    <path d="M31,23.0004766 C31,20.7919695 29.2089837,19 27.0004766,19 C24.7910163,19 23,20.7919695 23,23.0004766 C23,25.2089837 24.7910163,27 27.0004766,27 C29.2089837,27 31,25.2089837 31,23.0004766 L31,23.0004766 Z" id="Stroke-7"></path>
                    <path d="M24.9794816,16 C24.987041,15.8705403 25,15.7420999 25,15.6106014 C25,11.9592253 21.8650108,9 17.9967603,9 L18.0032397,9 C14.1349892,9 11,11.9592253 11,15.6106014 C11,15.7420999 11.011879,15.8705403 11.0205184,16" id="Stroke-9"></path>
                    <path d="M22,4.00047659 C22,1.7919695 20.2089837,0 18.0004766,0 C15.7910163,0 14,1.7919695 14,4.00047659 C14,6.20898368 15.7910163,8 18.0004766,8 C20.2089837,8 22,6.20898368 22,4.00047659 L22,4.00047659 Z" id="Stroke-11"></path>
                </g>
            </g>
        </g>
    </g>
</svg>