<?xml version="1.0" encoding="UTF-8"?>
<svg width="40px" height="37px" viewBox="0 0 40 37" version="1.1" xmlns="http://www.w3.org/2000/svg" xmlns:xlink="http://www.w3.org/1999/xlink">
    <!-- Generator: sketchtool 53 (72520) - https://sketchapp.com -->
    <title>F003BD2E-65FF-44AF-AD7B-6518E82B022F</title>
    <desc>Created with sketchtool.</desc>
    <g id="Page-1" stroke="none" stroke-width="1" fill="none" fill-rule="evenodd" stroke-linecap="round" stroke-linejoin="round">
        <g id="Desktop---mobile-app---1920-Copy" transform="translate(-498.000000, -121.000000)" stroke="#73C41D" stroke-width="2">
            <g id="Group-18" transform="translate(230.000000, 122.000000)">
                <g id="icon-hiring" transform="translate(269.000000, 0.000000)">
                    <path d="M13.5,5.5 C13.5,2.73951974 11.26127,0.5 8.5,0.5 C5.73873003,0.5 3.5,2.73951974 3.5,5.5 C3.5,8.26048026 5.73873003,10.5 8.5,10.5 C11.26127,10.5 13.5,8.26048026 13.5,5.5 L13.5,5.5 Z" id="Stroke-3"></path>
                    <path d="M18.5,1.5 L37.5,1.5" id="Line"></path>
                    <path d="M18.5,6.5 L37.5,6.5" id="Line-Copy-4"></path>
                    <path d="M18.5,11.5 L28.5,11.5" id="Line-Copy-5"></path>
                    <circle id="Oval-4" transform="translate(19.485281, 23.485281) rotate(-45.000000) translate(-19.485281, -23.485281) " cx="19.4852814" cy="23.4852814" r="6"></circle>
                    <path d="M27.2426407,26.2426407 L27.2426407,36.2426407" id="Line" transform="translate(27.242641, 31.242641) rotate(-45.000000) translate(-27.242641, -31.242641) "></path>
                    <path d="M0.5,19.5 C0.5,16.5 2.5,11.5 8.5,11.5 C11.5,11.5 13.5,13.5 13.5,13.5" id="Path-4"></path>
                </g>
            </g>
        </g>
    </g>
</svg>