<?xml version="1.0" encoding="UTF-8"?>
<svg width="28px" height="29px" viewBox="0 0 28 29" version="1.1" xmlns="http://www.w3.org/2000/svg" xmlns:xlink="http://www.w3.org/1999/xlink">
    <!-- Generator: sketchtool 53 (72520) - https://sketchapp.com -->
    <title>0C332A87-5ADB-4921-8232-6FBFE6F958D9</title>
    <desc>Created with sketchtool.</desc>
    <g id="Page-1" stroke="none" stroke-width="1" fill="none" fill-rule="evenodd" stroke-linecap="round" stroke-linejoin="round">
        <g id="Desktop---mobile-app---1920-Copy" transform="translate(-725.000000, -130.000000)" stroke="#73C41D" stroke-width="2">
            <g id="Group-18" transform="translate(230.000000, 122.000000)">
                <g id="icon-onboarding" transform="translate(496.000000, 9.000000)">
                    <path d="M17,16.4762364 C15.1993806,14.9349176 12.8699243,14 10.3216793,14 C4.62147281,14 0,18.6510383 0,24.3888889 C0,24.5937701 0.0187198899,24.7951188 0.0315898142,25" id="Stroke-1"></path>
                    <path d="M17,6.50056933 C17,2.91153543 14.0893483,0 10.5,0 C6.90951296,0 4,2.91153543 4,6.50056933 C4,10.0896032 6.90951296,13 10.5,13 C14.0893483,13 17,10.0896032 17,6.50056933 L17,6.50056933 Z" id="Stroke-3"></path>
                    <path d="M21.5,18.5 L21.5,26.5" id="Stroke-5"></path>
                    <path d="M17.5,22.5 L25.5,22.5" id="Stroke-7"></path>
                </g>
            </g>
        </g>
    </g>
</svg>