<?xml version="1.0" encoding="UTF-8"?>
<svg width="39px" height="25px" viewBox="0 0 39 25" version="1.1" xmlns="http://www.w3.org/2000/svg" xmlns:xlink="http://www.w3.org/1999/xlink">
    <!-- Generator: sketchtool 53 (72520) - https://sketchapp.com -->
    <title>E02D4A2C-8B1F-4EE1-A495-3393B315C693</title>
    <desc>Created with sketchtool.</desc>
    <g id="Page-1" stroke="none" stroke-width="1" fill="none" fill-rule="evenodd">
        <g id="Desktop---mobile-app---1920-Copy" transform="translate(-1551.000000, -134.000000)" stroke="#73C41D" stroke-width="2">
            <g id="Group-18" transform="translate(230.000000, 122.000000)">
                <g id="packaging-icon" transform="translate(1322.000000, 13.000000)">
                    <polygon id="Stroke-1" stroke-linecap="round" stroke-linejoin="round" points="1 23 27 23 27 4 1 4"></polygon>
                    <path d="M27.3413404,16.3872824 L27.2610374,16.3872824" id="Stroke-5"></path>
                    <polyline id="Stroke-8" stroke-linecap="round" stroke-linejoin="round" points="27 23 37 18.8481675 37 1.29964258 27 4 0.920245399 4 10.9886065 0.934554974 37 0.934554974"></polyline>
                    <path d="M13.6382979,13 L22.3617021,13 C22.7142553,13 23,12.7417308 23,12.4230769 L23,8.57692308 C23,8.25826923 22.7142553,8 22.3617021,8 L13.6382979,8 C13.2857447,8 13,8.25826923 13,8.57692308 L13,12.4230769 C13,12.7417308 13.2857447,13 13.6382979,13 Z" id="Stroke-12" stroke-linecap="round" stroke-linejoin="round"></path>
                </g>
            </g>
        </g>
    </g>
</svg>