<?xml version="1.0" encoding="UTF-8"?>
<svg width="42px" height="28px" viewBox="0 0 42 28" version="1.1" xmlns="http://www.w3.org/2000/svg" xmlns:xlink="http://www.w3.org/1999/xlink">
    <!-- Generator: sketchtool 53 (72520) - https://sketchapp.com -->
    <title>997C644E-4968-40EC-AE57-F3D889AE3454</title>
    <desc>Created with sketchtool.</desc>
    <g id="Page-1" stroke="none" stroke-width="1" fill="none" fill-rule="evenodd">
        <g id="Desktop---mobile-app---1920-Copy" transform="translate(-230.000000, -130.000000)" fill="#73C41D">
            <g id="Group-18" transform="translate(230.000000, 122.000000)">
                <g id="icon-peopledata" transform="translate(0.000000, 8.000000)">
                    <path d="M41.7324356,14 C41.9026057,14.2941734 42,14.6357129 42,15 L42,19 C42,19.3642871 41.9026057,19.7058266 41.7324356,20 C41.9026057,20.2941734 42,20.6357129 42,21 L42,25 C42,26.1045695 41.1045695,27 40,27 L22,27 C20.8954305,27 20,26.1045695 20,25 L20,21 C20,20.6357129 20.0973943,20.2941734 20.2675644,20 C20.0973943,19.7058266 20,19.3642871 20,19 L20,18.3477954 C18.7167487,16.8200628 16.2777765,15.5 13.15,15.5 C6.69001746,15.5 2,20.1898256 2,26.65 C2,27.2022847 1.55228475,27.65 1,27.65 C0.44771525,27.65 2.50821586e-12,27.2022847 2.50821586e-12,26.65 C2.50821586e-12,20.9603395 3.15966891,16.3904856 7.94457712,14.4745762 C5.61721293,13.1374055 4.05,10.6267606 4.05,7.75 C4.05,3.4705555 7.5198097,4.61852778e-14 11.8,4.61852778e-14 C16.079389,4.61852778e-14 19.55,3.4709369 19.55,7.75 C19.55,10.279698 18.3376289,12.5265065 16.4623138,13.9410565 C17.8294663,14.3196328 19.0227527,14.9173818 20,15.6372495 L20,15 C20,14.6357129 20.0973943,14.2941734 20.2675644,14 C20.0973943,13.7058266 20,13.3642871 20,13 L20,9 C20,7.8954305 20.8954305,7 22,7 L40,7 C41.1045695,7 42,7.8954305 42,9 L42,13 C42,13.3642871 41.9026057,13.7058266 41.7324356,14 Z M40,13 L40,9 L22,9 L22,13 L40,13 Z M40,15 L22,15 L22,17.9882332 C22.0000802,17.9955644 22.0000802,18.0028908 22,18.0102143 L22,19 L40,19 L40,15 Z M40,21 L22,21 L22,25 L40,25 L40,21 Z M17.55,7.75 C17.55,4.57546436 14.9747775,2 11.8,2 C8.62447544,2 6.05,4.57502879 6.05,7.75 C6.05,10.9257182 8.62404006,13.5 11.8,13.5 C14.9752129,13.5 17.55,10.9252826 17.55,7.75 Z M37,10 L39,10 L39,12 L37,12 L37,10 Z M37,16 L39,16 L39,18 L37,18 L37,16 Z M37,22 L39,22 L39,24 L37,24 L37,22 Z M34,10 L36,10 L36,12 L34,12 L34,10 Z M31,10 L33,10 L33,12 L31,12 L31,10 Z M34,16 L36,16 L36,18 L34,18 L34,16 Z M31,16 L33,16 L33,18 L31,18 L31,16 Z M34,22 L36,22 L36,24 L34,24 L34,22 Z M31,22 L33,22 L33,24 L31,24 L31,22 Z" id="Combined-Shape"></path>
                </g>
            </g>
        </g>
    </g>
</svg>